#!OML:ASF F:\VICON\USERDATA\INSTALL\rory3\rory3.ASF
:FULLY-SPECIFIED
:DEGREES
1069
root 0.737 15.7121 3.04071 6.29612 -44.6085 12.3773
lowerback -0.0948014 5.0864 6.23597
upperback 4.96203 6.6427 -1.48509
thorax 6.14287 3.62407 -4.61638
lowerneck 1.21036 -9.54882 -12.1371
upperneck 46.9945 -18.7203 8.6282
head 20.9772 -9.02815 3.50331
rclavicle -1.16885e-013 9.54166e-015
rhumerus -21.2286 24.0688 -96.9401
rradius 19.6984
rwrist 17.5092
rhand -26.6552 -53.1394
rfingers 7.12502
rthumb -0.0870839 -83.1191
lclavicle -1.16885e-013 9.54166e-015
lhumerus -55.7834 -84.158 131.503
lradius 84.9152
lwrist 24.884
lhand 7.2889 -20.1187
lfingers 7.12502
lthumb 32.5506 6.97524
rfemur -32.9131 1.154 -3.96367
rtibia 75.9092
rfoot -2.53888 -10.1847
rtoes -27.5714
lfemur -50.0603 -20.0408 -28.5026
ltibia 57.913
lfoot -21.3376 0.565068
ltoes 16.8629
1070
root 0.736143 15.7107 3.03961 6.16805 -44.688 12.4719
lowerback 0.00384813 5.11551 6.15976
upperback 5.01064 6.68931 -1.51273
thorax 6.13853 3.64553 -4.60613
lowerneck 1.06439 -9.62042 -12.0904
upperneck 47.0205 -18.8188 8.58858
head 21.0514 -9.05334 3.44506
rclavicle -1.51871e-013 9.54166e-015
rhumerus -21.1526 24.048 -96.9058
rradius 19.7016
rwrist 17.5418
rhand -26.7564 -53.1388
rfingers 7.12502
rthumb -0.184765 -83.1185
lclavicle -1.51871e-013 9.54166e-015
lhumerus -55.6883 -84.3504 131.385
lradius 84.9455
lwrist 24.8889
lhand 7.47469 -20.9294
lfingers 7.12502
lthumb 32.7274 6.1279
rfemur -32.9038 1.19853 -4.04309
rtibia 75.9188
rfoot -2.49351 -10.1649
rtoes -26.9753
lfemur -49.9579 -19.9361 -28.6619
ltibia 57.9125
lfoot -21.4134 0.741742
ltoes 17.2017
1071
root 0.734218 15.71 3.04055 6.07929 -44.7734 12.5668
lowerback 0.0193905 5.16445 6.09034
upperback 5.02981 6.7591 -1.54931
thorax 6.15539 3.6789 -4.60078
lowerneck 1.07012 -9.69418 -11.9989
upperneck 46.9743 -18.9315 8.57212
head 21.0146 -9.08146 3.39586
rclavicle -3.18055e-015 -3.02153e-014
rhumerus -21.0887 23.8076 -96.8772
rradius 19.6925
rwrist 17.8001
rhand -26.66 -53.235
rfingers 7.12502
rthumb -0.0917378 -83.2147
lclavicle -3.18055e-015 -3.02153e-014
lhumerus -56.2309 -84.3883 131.975
lradius 84.884
lwrist 24.8595
lhand 7.64503 -21.8078
lfingers 7.12502
lthumb 32.8895 5.21564
rfemur -32.9149 1.24475 -4.12887
rtibia 75.92
rfoot -2.48627 -10.173
rtoes -27.4835
lfemur -49.8849 -19.8292 -28.8292
ltibia 57.9038
lfoot -21.465 0.748532
ltoes 18.697
1072
root 0.733275 15.7099 3.03699 6.11034 -44.8157 12.5501
lowerback 0.011548 5.1989 6.1115
upperback 5.03724 6.8048 -1.56553
thorax 6.17914 3.7039 -4.62426
lowerneck 1.56642 -9.69909 -11.7566
upperneck 46.6742 -19.0115 8.65332
head 20.6022 -9.06017 3.29812
rclavicle -1.03368e-014 1.11319e-014
rhumerus -20.9414 23.5915 -96.8545
rradius 19.649
rwrist 17.9812
rhand -26.5279 -53.2545
rfingers 7.12502
rthumb 0.0358694 -83.2343
lclavicle -1.03368e-014 1.11319e-014
lhumerus -56.552 -84.3788 132.353
lradius 84.7971
lwrist 24.8381
lhand 5.6285 -19.9424
lfingers 7.12502
lthumb 30.9693 7.46491
rfemur -32.9692 1.27705 -4.1101
rtibia 75.9409
rfoot -2.54061 -10.2086
rtoes -27.8148
lfemur -49.9343 -19.7821 -28.7763
ltibia 57.8999
lfoot -21.4329 0.610575
ltoes 19.0736
1073
root 0.732727 15.7073 3.0325 6.17206 -44.8008 12.5277
lowerback 0.0211328 5.20407 6.10772
upperback 5.00132 6.81316 -1.5618
thorax 6.13526 3.70588 -4.62048
lowerneck 1.56704 -9.71735 -11.7354
upperneck 46.6611 -19.0433 8.65757
head 20.5962 -9.06864 3.2901
rclavicle -7.31528e-014 -3.18055e-015
rhumerus -20.9329 23.413 -96.8445
rradius 19.6103
rwrist 18.1568
rhand -26.4533 -53.2254
rfingers 7.12502
rthumb 0.107969 -83.2051
lclavicle -7.31528e-014 -3.18055e-015
lhumerus -56.7924 -84.3864 132.598
lradius 84.7832
lwrist 24.8822
lhand 6.5697 -21.6996
lfingers 7.12502
lthumb 31.866 5.53317
rfemur -32.9223 1.34145 -4.14286
rtibia 75.9596
rfoot -3.13612 -10.0894
rtoes -25.6985
lfemur -50.0572 -19.8561 -28.6284
ltibia 57.9211
lfoot -21.3797 0.475225
ltoes 18.4085
1074
root 0.732826 15.7101 3.03053 6.22751 -44.7718 12.4965
lowerback 0.040398 5.20034 6.12306
upperback 4.96696 6.80952 -1.55742
thorax 6.08837 3.7028 -4.62837
lowerneck 1.54026 -9.75282 -11.7285
upperneck 46.7162 -19.1022 8.6259
head 20.6513 -9.09159 3.26018
rclavicle 4.69132e-014 4.77083e-014
rhumerus -21.0551 23.2158 -96.8353
rradius 19.7233
rwrist 18.3126
rhand -26.3263 -53.3693
rfingers 7.12502
rthumb 0.230627 -83.3489
lclavicle 4.69132e-014 4.77083e-014
lhumerus -57.3204 -84.3835 133.105
lradius 84.8208
lwrist 24.9374
lhand 5.40078 -19.8751
lfingers 7.12502
lthumb 30.7522 7.57335
rfemur -33.0939 1.24877 -4.03411
rtibia 76.0136
rfoot -2.49547 -10.1953
rtoes -28.1264
lfemur -50.1142 -19.8766 -28.5484
ltibia 57.9173
lfoot -21.347 0.396123
ltoes 17.841
1075
root 0.732635 15.706 3.02981 6.1932 -44.8243 12.5172
lowerback 0.0679953 5.22923 6.1361
upperback 4.96912 6.84963 -1.56516
thorax 6.08323 3.72356 -4.64273
lowerneck 0.990499 -9.82577 -11.8142
upperneck 47.0238 -19.1017 8.41209
head 21.0429 -9.12233 3.24129
rclavicle -1.59028e-014 4.77083e-015
rhumerus -21.1617 23.1828 -96.833
rradius 19.8742
rwrist 18.299
rhand -26.1448 -53.6466
rfingers 7.12502
rthumb 0.405876 -83.6259
lclavicle -1.59028e-014 4.77083e-015
lhumerus -58.3311 -84.4018 134.111
lradius 84.8846
lwrist 25.0761
lhand 5.77283 -19.6666
lfingers 7.12502
lthumb 31.1068 7.71446
rfemur -33.1659 1.30236 -4.04996
rtibia 76.07
rfoot -2.44369 -10.1668
rtoes -29.2752
lfemur -50.0715 -19.7732 -28.6086
ltibia 57.9134
lfoot -21.3498 0.577157
ltoes 16.9726
1076
root 0.731044 15.704 3.03263 6.07285 -44.8413 12.6558
lowerback 0.0557977 5.2465 6.06207
upperback 4.97771 6.87537 -1.5898
thorax 6.09627 3.73414 -4.62409
lowerneck 1.53608 -9.78767 -11.6751
upperneck 46.7516 -19.1391 8.55576
head 20.6622 -9.10107 3.20921
rclavicle 3.18055e-015 5.24792e-014
rhumerus -21.2415 23.2634 -96.8571
rradius 19.9457
rwrist 18.2499
rhand -26.0882 -53.6973
rfingers 7.12502
rthumb 0.460539 -83.6765
lclavicle 3.18055e-015 5.24792e-014
lhumerus -58.8087 -84.3795 134.611
lradius 84.8915
lwrist 25.1535
lhand 4.6537 -19.6497
lfingers 7.12502
lthumb 30.0396 7.93041
rfemur -33.1526 1.28509 -4.1757
rtibia 76.0897
rfoot -2.38271 -10.1359
rtoes -30.0863
lfemur -49.9894 -19.7742 -28.7499
ltibia 57.8777
lfoot -21.362 0.748752
ltoes 16.5234
1077
root 0.728532 15.7072 3.03514 5.99472 -44.7664 12.8305
lowerback -0.0363458 5.19059 5.91917
upperback 4.95534 6.8004 -1.58538
thorax 6.09498 3.68926 -4.53992
lowerneck 1.65168 -9.71993 -11.7892
upperneck 46.6944 -19.0306 8.59762
head 20.5911 -9.08158 3.27748
rclavicle -1.98785e-014 1.74931e-014
rhumerus -21.3044 23.4606 -96.8957
rradius 20.0186
rwrist 18.1692
rhand -26.0759 -53.8913
rfingers 7.12502
rthumb 0.472432 -83.8706
lclavicle -1.98785e-014 1.74931e-014
lhumerus -58.112 -84.2293 133.931
lradius 84.8831
lwrist 25.1545
lhand 5.7537 -19.6627
lfingers 7.12502
lthumb 31.0886 7.72187
rfemur -33.1247 1.13831 -4.32573
rtibia 76.0792
rfoot -2.39095 -10.0986
rtoes -29.5269
lfemur -50.013 -19.8426 -28.8965
ltibia 57.851
lfoot -21.3535 0.561796
ltoes 17.918
1078
root 0.725859 15.7103 3.03899 6.03472 -44.7373 12.8241
lowerback -0.165538 5.07365 5.87258
upperback 4.94498 6.63446 -1.50295
thorax 6.11859 3.60189 -4.43077
lowerneck 1.68073 -9.5773 -12.0048
upperneck 46.7412 -18.7751 8.55346
head 20.5898 -9.02633 3.34358
rclavicle 4.37326e-014 1.59028e-015
rhumerus -21.2738 23.954 -96.9563
rradius 20.0185
rwrist 17.896
rhand -25.9835 -54.2586
rfingers 7.12502
rthumb 0.561651 -84.2376
lclavicle 4.37326e-014 1.59028e-015
lhumerus -56.3726 -83.9498 132.162
lradius 84.9025
lwrist 25.2217
lhand 4.85209 -19.4503
lfingers 7.12502
lthumb 30.2289 8.09529
rfemur -33.0761 1.08775 -4.34163
rtibia 76.0558
rfoot -2.54474 -10.065
rtoes -29.2906
lfemur -50.0362 -19.8281 -28.9425
ltibia 57.8395
lfoot -21.3721 0.242452
ltoes 20.1433
1079
root 0.722648 15.7063 3.03882 6.04267 -44.744 12.7839
lowerback -0.209592 4.99913 5.85248
upperback 4.95911 6.52891 -1.4349
thorax 6.13364 3.54671 -4.35285
lowerneck 1.67969 -9.47723 -12.1199
upperneck 46.7424 -18.5907 8.52517
head 20.5629 -8.97798 3.38428
rclavicle 8.50798e-014 -3.18055e-015
rhumerus -21.6043 23.9106 -96.9585
rradius 20.2119
rwrist 18.0723
rhand -25.8014 -54.3722
rfingers 7.12502
rthumb 0.737541 -84.3506
lclavicle 8.50798e-014 -3.18055e-015
lhumerus -55.3155 -83.813 131.069
lradius 84.9161
lwrist 25.2794
lhand 5.49807 -19.38
lfingers 7.12502
lthumb 30.8449 8.05087
rfemur -33.0134 1.15657 -4.31991
rtibia 76.0672
rfoot -2.74629 -10.0893
rtoes -30.1383
lfemur -49.982 -19.8197 -28.9264
ltibia 57.8229
lfoot -21.3593 0.238883
ltoes 20.0887
